# xmcd
#
# Track frame offsets: 
#        150
#        16390
#        31148
#        45739
#        61357
#        76596
#        92719
#        101226
#        116205
#        132381
#        144682
#        151160
#        167901
#        186756
#        192394
#        208927
#        222925
#        234087
#        246965
#        262088
#        270588
#        287296
#        294875
#        313373
#        325477
#        334990
#        352132
#
# Disc length: 4747 seconds
#
# Revision: 0
# Processed by: cddbd v1.5.2PL0 Copyright (c) Steve Scherf et al.
# Submitted via: ExactAudioCopy v1.3
#
DISCID=a212891b
DTITLE=Various Artist - Oxford American Kentucky
DYEAR=2017
DGENRE=Country
TTITLE0=Dave Evans - Be Proud of the Gray in Your Hairq
TTITLE1=Sturgill Simpson - Sea Stories
TTITLE2=Soul Walkiers - Can I Say It Again
TTITLE3=Joan Shelly - By The Ohio
TTITLE4=James Lindsay and Cicily Bullard - Rainbows
TTITLE5=Matt Duncan - Beaon
TTITLE6=The Torques - It's Me Not You
TTITLE7=King Kong - Me Hungry
TTITLE8=Freakwater - My Old Drunk Friend
TTITLE9=Booker Orchestra - Camp Nelson Blues
TTITLE10=Sarah Ogan Cunning - I'm Going to Organize, Baby Mine
TTITLE11=Brett Ratliff - Shut Up In The Mines of Coal Creek
TTITLE12=Loretta Lynn - Women's Prison
TTITLE13=Jean Ritchie - Shady Grove
TTITLE14=Legendary Shack Shakers - Down to the Bone
TTITLE15=Bonnie "Prince" Billy - Rich Wife Full of Happiness
TTITLE16=The Phipps Family - Forsaken Lover
TTITLE17=Shirley Verrett - I'm A Poor Li'l Orphan in this Worl'
TTITLE18=Dwight Yoakam - Some Dark Holler
TTITLE19=Les McCann - It Never Stopped in My Home Town
TTITLE20=The Pleasure Unit - Blind
TTITLE21=Pine Mountain Girls - Wonderous Love
TTITLE22=Locust Grove Octet - Pretty Polly
TTITLE23=Harry Dean Stanton - Cancion Mixteca
TTITLE24=Rachel Grimes - Eights
TTITLE25=The Everly Brothers - Love Is Strange
TTITLE26=Bill Monroe and the Bluegrass Boys - Y'all Come
EXTD=
EXTT0=
EXTT1=
EXTT2=
EXTT3=
EXTT4=
EXTT5=
EXTT6=
EXTT7=
EXTT8=
EXTT9=
EXTT10=
EXTT11=
EXTT12=
EXTT13=
EXTT14=
EXTT15=
EXTT16=
EXTT17=
EXTT18=
EXTT19=
EXTT20=
EXTT21=
EXTT22=
EXTT23=
EXTT24=
EXTT25=
EXTT26=
PLAYORDER=
